<?xml version="1.0" standalone="no"?>
<!DOCTYPE svg PUBLIC "-//W3C//DTD SVG 20010904//EN"
 "http://www.w3.org/TR/2001/REC-SVG-20010904/DTD/svg10.dtd">
<svg version="1.0" xmlns="http://www.w3.org/2000/svg"
 width="128.000000pt" height="128.000000pt" viewBox="0 0 128.000000 128.000000"
 preserveAspectRatio="xMidYMid meet">
<metadata>
Created by potrace 1.14, written by Peter Selinger 2001-2017
</metadata>
<g transform="translate(0.000000,128.000000) scale(0.100000,-0.100000)"
fill="#000000" stroke="none">
<path d="M379 1219 c-30 -57 -190 -702 -190 -770 -1 -175 109 -287 317 -323
203 -36 408 17 499 128 70 86 83 194 42 341 -14 50 -53 200 -87 335 -68 268
-82 310 -103 310 -15 0 -48 -72 -126 -276 l-43 -111 -58 -1 -59 -1 -20 52
c-55 148 -71 190 -84 220 -8 17 -22 51 -32 75 -20 46 -38 53 -56 21z"/>
</g>
</svg>
